<svg preserveAspectRatio="none" width="100%" height="100%" overflow="visible" style="display: block;" viewBox="0 0 293.988 35.6446" fill="none" xmlns="http://www.w3.org/2000/svg">
<g id="Group">
<path id="Vector" d="M288.388 0.487489V27.1656L275.258 13.18L262.128 27.1656V0.487489H256.523V35.1337H260.374C260.866 35.1339 261.35 35.0338 261.801 34.8394C262.25 34.645 262.656 34.3607 262.993 34.004L275.249 20.9585L287.507 34.004C287.842 34.3607 288.245 34.645 288.696 34.8394C289.147 35.0338 289.633 35.1339 290.123 35.1337H293.988V0.487489H288.388Z" fill="var(--fill-0, #FF7900)"/>
<path id="Vector_2" d="M28.7471 14.6848H7.33787C7.10192 14.6898 6.86741 14.6472 6.64844 14.5597C6.42945 14.4721 6.23057 14.3414 6.06369 14.1754C5.89684 14.0093 5.76542 13.8115 5.6774 13.5936C5.58939 13.3757 5.54657 13.1424 5.55154 12.9077V8.40718C5.54657 8.17244 5.58939 7.9391 5.6774 7.72127C5.76542 7.50341 5.89684 7.30553 6.06369 7.13952C6.23057 6.97348 6.42945 6.84273 6.64844 6.75518C6.86741 6.66762 7.10192 6.62508 7.33787 6.63003H30.6085C31.2001 6.63317 31.783 6.48902 32.3043 6.21068C32.8257 5.93232 33.2686 5.52863 33.593 5.03639C34.5072 3.62658 35.2155 2.09507 35.6977 0.487489H7.33787C3.7384e-05 0.487489 0 6.83575 0 6.83575V13.8416C0 13.8416 3.7384e-05 20.1899 7.33787 20.1899H28.7471C28.9831 20.1848 29.2175 20.2277 29.4365 20.3152C29.6554 20.4028 29.8543 20.5334 30.0213 20.6994C30.1881 20.8655 30.3194 21.0635 30.4074 21.2813C30.4956 21.4991 30.5386 21.7323 30.5335 21.9671V27.212C30.5386 27.4468 30.4956 27.68 30.4074 27.8978C30.3194 28.1156 30.1881 28.3136 30.0213 28.4795C29.8543 28.6456 29.6554 28.7763 29.4365 28.864C29.2175 28.9516 28.9831 28.9941 28.7471 28.989H5.08926C4.49761 28.9857 3.91453 29.1298 3.39321 29.4083C2.87189 29.6866 2.42893 30.0904 2.10467 30.5828C1.19062 31.9924 0.481976 33.5242 0 35.1315H28.7471C36.085 35.1315 36.085 28.7833 36.085 28.7833V21.0311C36.085 21.0311 36.085 14.6848 28.7471 14.6848Z" fill="var(--fill-0, #FF7900)"/>
<path id="Vector_3" d="M122.083 0.487489H116.156V26.7116L92.7068 1.63329C92.3715 1.2747 91.9654 0.988815 91.5138 0.793406C91.0624 0.597996 90.5753 0.497278 90.0832 0.49759H85.9184V35.1438H91.845V8.91956L115.331 34.0019C115.666 34.3599 116.072 34.6452 116.523 34.8404C116.974 35.0354 117.46 35.1358 117.952 35.1356H122.083V0.487489Z" fill="var(--fill-0, #FF7900)"/>
<path id="Vector_4" d="M72.8834 0.487489V29.2817C72.8834 29.7094 71.2431 30.4435 60.9956 30.4435C50.7481 30.4435 49.1078 29.7113 49.1078 29.2817V0.487489H43.1812V31.7426C45.0061 35.8659 58.1144 35.63 60.9956 35.63C63.8768 35.63 76.9933 35.8659 78.81 31.7426V0.487489H72.8834Z" fill="var(--fill-0, #FF7900)"/>
<path id="Vector_5" d="M204.046 20.1899C206.288 19.2135 206.159 11.8889 206.159 10.3397C206.159 8.79045 206.288 1.46383 204.046 0.487489H172.442V6.63001H199.965C200.238 6.63001 200.624 7.66283 200.624 10.3397C200.624 13.65 200.234 14.6848 199.965 14.6848H172.442V35.1335H178.05V20.1899H186.051L200.022 34.0889C200.692 34.7571 201.604 35.1329 202.554 35.1335H209.6L194.579 20.1899H204.046Z" fill="var(--fill-0, #FF7900)"/>
<path id="Vector_6" d="M231.341 0.00254983C228.46 0.00254983 215.077 -0.235541 213.262 3.88971V21.823C214.832 21.3571 216.329 20.669 217.705 19.7796C218.16 19.4875 218.532 19.0871 218.791 18.6152C219.05 18.1431 219.185 17.6142 219.187 17.0765V6.47584C219.187 5.83033 221.321 5.18484 231.341 5.18484C241.362 5.18484 243.495 5.83033 243.495 6.47584V12.9048C245.067 12.4375 246.562 11.7487 247.938 10.8593C248.393 10.5673 248.765 10.167 249.024 9.69494C249.283 9.22288 249.42 8.69397 249.422 8.15623V3.88971C247.597 -0.235541 234.214 0.00254983 231.341 0.00254983Z" fill="var(--fill-0, #FF7900)"/>
<path id="Vector_7" d="M231.343 35.6401C234.224 35.6401 247.609 35.8782 249.424 31.7528V13.8176C247.85 14.284 246.352 14.9729 244.978 15.8631C244.524 16.1551 244.151 16.5554 243.893 17.0274C243.632 17.4995 243.497 18.0285 243.497 18.5661V29.1667C243.497 29.8123 241.364 30.4578 231.343 30.4578C221.323 30.4578 219.189 29.8143 219.189 29.1667V22.7377C217.617 23.2049 216.119 23.8937 214.745 24.7833C214.291 25.0752 213.916 25.4753 213.656 25.9474C213.399 26.4195 213.262 26.9486 213.262 27.4864V31.7549C215.086 35.8801 228.467 35.642 231.341 35.642" fill="var(--fill-0, #FF7900)"/>
<path id="Vector_8" d="M163.149 14.6808H148.52C147.979 14.6805 147.446 14.8156 146.971 15.0736C146.497 15.3317 146.095 15.7044 145.803 16.1574C144.998 17.4094 144.373 18.7675 143.947 20.192H158.901C159.27 20.192 159.724 20.5953 159.724 24.9102C159.724 28.5834 159.262 28.9929 158.901 28.9929H135.908C135.636 28.9929 134.787 27.8331 134.787 17.8115C134.787 7.78987 135.636 6.62995 135.908 6.62995H159.787C160.378 6.63328 160.962 6.48922 161.483 6.21086C162.004 5.93249 162.447 5.52877 162.771 5.03639C163.685 3.62654 164.394 2.09503 164.876 0.487489H132.761C128.964 2.14364 129.182 15.1851 129.182 17.8096C129.182 20.434 128.964 33.4774 132.761 35.1315H163.149C165.391 34.1532 165.261 26.4574 165.261 24.9061C165.261 23.3549 165.391 15.6571 163.149 14.6808Z" fill="var(--fill-0, #FF7900)"/>
</g>
</svg>
